<svg width="47" height="47" viewBox="0 0 47 47" fill="none" xmlns="http://www.w3.org/2000/svg">
<g filter="url(#filter0_d_462_29)">
<rect x="5" y="5" width="37" height="37" rx="10" fill="white"/>
</g>
<path d="M23.5 13C24.0384 13 24.4823 13.4053 24.543 13.9275L24.55 14.05L24.5503 15.4297C28.2049 15.9006 31.1 18.796 31.5705 22.4507L32.95 22.45C33.5299 22.45 34 22.9201 34 23.5C34 24.0384 33.5947 24.4823 33.0724 24.543L32.95 24.55L31.5703 24.5503C31.0994 28.2045 28.2045 31.0994 24.5503 31.5703L24.55 32.95C24.55 33.5299 24.0799 34 23.5 34C22.9616 34 22.5177 33.5947 22.457 33.0724L22.45 32.95L22.4507 31.5705C18.796 31.1 15.9006 28.2049 15.4297 24.5503L14.05 24.55C13.4701 24.55 13 24.0799 13 23.5C13 22.9616 13.4053 22.5177 13.9275 22.457L14.05 22.45L15.4295 22.4507C15.9001 18.7956 18.7956 15.9001 22.4507 15.4295L22.45 14.05C22.45 13.4701 22.9201 13 23.5 13ZM23.5 17.4625C20.1656 17.4625 17.4625 20.1656 17.4625 23.5C17.4625 26.8344 20.1656 29.5375 23.5 29.5375C26.8344 29.5375 29.5375 26.8344 29.5375 23.5C29.5375 20.1656 26.8344 17.4625 23.5 17.4625ZM23.5 19.3C25.8196 19.3 27.7 21.1804 27.7 23.5C27.7 25.8196 25.8196 27.7 23.5 27.7C21.1804 27.7 19.3 25.8196 19.3 23.5C19.3 21.1804 21.1804 19.3 23.5 19.3Z" fill="#1F83EB"/>
<defs>
<filter id="filter0_d_462_29" x="0" y="0" width="47" height="47" filterUnits="userSpaceOnUse" color-interpolation-filters="sRGB">
<feFlood flood-opacity="0" result="BackgroundImageFix"/>
<feColorMatrix in="SourceAlpha" type="matrix" values="0 0 0 0 0 0 0 0 0 0 0 0 0 0 0 0 0 0 127 0" result="hardAlpha"/>
<feOffset/>
<feGaussianBlur stdDeviation="2.5"/>
<feComposite in2="hardAlpha" operator="out"/>
<feColorMatrix type="matrix" values="0 0 0 0 0 0 0 0 0 0 0 0 0 0 0 0 0 0 0.25 0"/>
<feBlend mode="normal" in2="BackgroundImageFix" result="effect1_dropShadow_462_29"/>
<feBlend mode="normal" in="SourceGraphic" in2="effect1_dropShadow_462_29" result="shape"/>
</filter>
</defs>
</svg>
