<svg width="360" height="640" viewBox="0 0 360 640" fill="none" xmlns="http://www.w3.org/2000/svg">
<g opacity="0.8" clip-path="url(#clip0_511_318)">
<path d="M771 -37H-431V640H771V-37Z" fill="#A0D2DC"/>
<path opacity="0.2" d="M-431 640V188.667C-380.003 164.951 -329.006 141.235 -266.977 141.653C-204.948 142.071 -131.888 166.623 -66.0177 186.159C-0.147004 205.695 58.5344 220.214 108.648 213.114C158.761 206.014 200.307 177.294 258.272 191.801C316.237 206.308 390.62 264.042 437.32 268.277C484.019 272.512 503.034 223.247 570.041 198.696C637.047 174.146 752.046 174.309 793.537 176.756C835.029 179.204 803.015 183.935 771 188.667V640H-431Z" fill="#1F83EB"/>
<path opacity="0.4" d="M-431 640V414.333C-374.277 385.511 -317.554 356.689 -266.977 362.931C-216.4 369.174 -171.968 410.48 -111.719 443.168C-51.4695 475.857 24.5972 499.927 91.1188 494.57C157.64 489.213 214.617 454.429 263.28 443.168C311.944 431.908 352.295 444.17 401.009 416.214C449.724 388.258 506.803 320.084 585.066 330.962C663.328 341.84 762.774 431.769 797.294 458.84C831.813 485.91 801.407 450.122 771 414.333V640H-431Z" fill="#1F83EB"/>
</g>
<defs>
<clipPath id="clip0_511_318">
<rect width="1202" height="677" fill="white" transform="translate(-431 -37)"/>
</clipPath>
</defs>
</svg>
